<svg xmlns="http://www.w3.org/2000/svg" xmlns:xlink="http://www.w3.org/1999/xlink" width="144" height="144" version="1.1" viewBox="0 0 144 144">
  <defs>
    <rect id="uxs-a" width="144" height="144" x="0" y="0" rx="72"/>
  </defs>
  <g fill="none" fill-rule="evenodd" stroke="none" stroke-width="1">
    <mask id="uxs-b" fill="#fff">
      <use xlink:href="#uxs-a"/>
    </mask>
    <use fill="#FFCD00" xlink:href="#uxs-a"/>
    <g fill="#FFF" mask="url(#uxs-b)">
      <g transform="translate(43 32.354)">
        <path d="M28.75,21.6464168 C44.6281866,21.6464168 57.5,34.5182302 57.5,50.3964168 C57.5,66.2746034 44.6281866,79.1464168 28.75,79.1464168 C12.8718134,79.1464168 0,66.2746034 0,50.3964168 C0,34.5182302 12.8718134,21.6464168 28.75,21.6464168 Z M29.8298107,38.2016956 C28.9012101,37.7434038 27.7769117,38.1246645 27.3186199,39.0532651 L27.3186199,39.0532651 L24.8097393,44.1368124 C24.6731811,44.4135094 24.4092134,44.6052932 24.1038601,44.6496636 L24.1038601,44.6496636 L18.4938326,45.4648484 C18.0857631,45.5241443 17.7086211,45.7163078 17.4207925,46.0115896 C16.6979777,46.7531213 16.7131508,47.9402087 17.4546825,48.6630234 L17.4546825,48.6630234 L21.5141366,52.6200132 C21.7350923,52.8353918 21.835919,53.1457045 21.7837584,53.4498239 L21.7837584,53.4498239 L20.8254513,59.0371831 C20.7557447,59.4436037 20.8219597,59.8616688 21.0138455,60.2266572 C21.495722,61.1432408 22.6293979,61.4956405 23.5459815,61.013764 L23.5459815,61.013764 L28.5637427,58.3757708 C28.836859,58.2321851 29.163141,58.2321851 29.4362573,58.3757708 L29.4362573,58.3757708 L34.4540185,61.013764 C34.8190069,61.2056498 35.237072,61.2718648 35.6434926,61.2021582 C36.6641234,61.0271063 37.3496006,60.0578139 37.1745487,59.0371831 L37.1745487,59.0371831 L36.2162416,53.4498239 C36.164081,53.1457045 36.2649077,52.8353918 36.4858634,52.6200132 L36.4858634,52.6200132 L40.5453175,48.6630234 C40.8405993,48.3751948 41.0327628,47.9980528 41.0920588,47.5899834 C41.2409668,46.5652117 40.5309391,45.6137564 39.5061674,45.4648484 L39.5061674,45.4648484 L33.8961399,44.6496636 C33.5907866,44.6052932 33.3268189,44.4135094 33.1902607,44.1368124 L33.1902607,44.1368124 L30.6813801,39.0532651 C30.4988859,38.6834914 30.1995843,38.3841898 29.8298107,38.2016956 Z"/>
        <path d="M43.3333333,9.24677416 L50.5446878,9.24677416 C53.0981139,9.24677416 55.1680748,7.17681325 55.1680748,4.62338708 C55.1680748,2.0699609 53.0981139,4.66043995e-14 50.5446878,4.61852778e-14 L7.57865601,4.61852778e-14 C5.02522984,4.66543346e-14 2.95526893,2.0699609 2.95526893,4.62338708 C2.95526893,7.17681325 5.02522984,9.24677416 7.57865601,9.24677416 L15,9.24677416 L15,9.24677416 L15,21.3130835 C18.7578517,19.6851411 23.341185,18.87117 28.75,18.87117 C34.158815,18.87117 39.0199261,19.6851411 43.3333333,21.3130835 L43.3333333,9.24677416 Z" opacity=".6"/>
      </g>
    </g>
  </g>
</svg>
